<?xml version="1.0" standalone="no"?>
<!DOCTYPE svg PUBLIC "-//W3C//DTD SVG 20010904//EN"
 "http://www.w3.org/TR/2001/REC-SVG-20010904/DTD/svg10.dtd">
<svg version="1.0" xmlns="http://www.w3.org/2000/svg"
 width="794.000000pt" height="794.000000pt" viewBox="0 0 794.000000 794.000000"
 preserveAspectRatio="xMidYMid meet">
<metadata>
Created by potrace 1.14, written by Peter Selinger 2001-2017
</metadata>
<g transform="translate(0.000000,794.000000) scale(0.100000,-0.100000)"
fill="#000000" stroke="none">
<path d="M2365 7542 c-2 -2 -19 -5 -37 -7 -56 -5 -112 -16 -123 -25 -5 -5 -13
-8 -18 -8 -19 -1 -73 -15 -83 -23 -6 -5 -19 -10 -30 -12 -10 -2 -30 -9 -44
-17 -14 -7 -26 -13 -28 -11 -1 1 -16 -6 -33 -15 -17 -8 -33 -13 -36 -10 -3 3
-12 -2 -20 -10 -8 -8 -19 -12 -24 -9 -5 4 -9 2 -9 -3 0 -10 -81 -58 -92 -54
-5 1 -8 -2 -8 -8 0 -5 -5 -10 -11 -10 -31 0 -263 -193 -414 -345 -165 -165
-233 -244 -380 -440 -8 -11 -23 -31 -33 -45 -64 -84 -202 -280 -202 -285 0 -4
-13 -25 -29 -49 -16 -23 -41 -64 -56 -91 -16 -28 -31 -52 -34 -55 -9 -8 -211
-403 -211 -413 0 -3 -10 -26 -22 -53 -12 -27 -23 -51 -23 -54 0 -3 -6 -15 -13
-27 -7 -13 -10 -23 -6 -23 3 0 2 -6 -3 -12 -8 -11 -46 -104 -48 -118 0 -3 -7
-16 -15 -30 -7 -14 -13 -26 -12 -28 3 -3 -10 -56 -17 -67 -3 -5 -7 -16 -8 -22
-2 -7 -4 -19 -6 -25 -1 -7 -6 -19 -10 -25 -5 -7 -5 -17 -2 -23 3 -5 1 -10 -4
-10 -6 0 -10 -3 -9 -7 2 -9 -16 -99 -22 -105 -1 -2 -3 -12 -5 -23 -2 -11 -7
-36 -10 -55 -4 -19 -9 -45 -11 -57 -2 -13 -6 -35 -9 -50 -11 -63 -20 -174 -20
-273 0 -100 11 -246 21 -261 2 -4 6 -24 10 -45 3 -20 11 -49 17 -63 5 -14 11
-28 12 -31 7 -29 30 -88 38 -97 5 -7 6 -13 1 -13 -5 0 -4 -4 2 -8 6 -4 21 -27
35 -52 82 -154 246 -301 439 -395 41 -20 83 -40 92 -45 10 -6 27 -10 37 -10
11 0 22 -4 25 -9 3 -4 20 -12 38 -16 18 -4 38 -9 43 -11 70 -22 152 -42 210
-50 11 -1 20 -3 20 -4 0 -1 14 -3 30 -5 17 -2 46 -6 65 -9 37 -7 115 -14 220
-22 101 -7 3615 -7 3980 1 537 10 742 14 1435 30 239 5 430 13 535 20 30 3
103 7 163 9 103 5 147 16 147 36 0 6 -8 10 -17 11 -10 0 -38 2 -63 4 -159 13
-273 17 -485 20 -132 2 -240 4 -240 5 0 1 -58 3 -130 5 -326 9 -609 17 -710
20 -60 2 -303 6 -539 9 -236 3 -431 8 -434 10 -2 3 -12 1 -22 -4 -10 -5 -20
-7 -24 -3 -7 7 -76 10 -76 3 0 -6 -52 -4 -80 2 -26 6 -37 16 -55 50 -9 18 -41
74 -70 123 -30 50 -68 115 -85 147 -19 33 -41 58 -53 62 -32 8 -730 7 -742 -2
-6 -4 -32 -45 -59 -92 -150 -262 -170 -292 -193 -287 -13 2 -23 1 -23 -2 0 -8
-109 -5 -117 3 -3 3 -13 1 -23 -4 -10 -5 -20 -7 -24 -3 -7 7 -76 10 -76 3 0
-3 -26 -4 -57 -2 -32 2 -67 2 -78 2 -11 -1 -27 -1 -35 0 -8 0 -28 0 -45 -1
-16 -1 -37 -1 -45 0 -8 1 -23 1 -32 2 -15 0 -18 10 -18 68 0 109 38 101 -492
101 -528 0 -488 8 -488 -103 0 -62 -2 -67 -22 -68 -13 -1 -27 0 -33 1 -5 1
-17 1 -25 1 -33 -1 -77 -1 -112 2 -21 1 -38 0 -38 -3 0 -7 -110 -4 -117 4 -3
3 -14 1 -24 -5 -11 -5 -19 -6 -19 -2 0 8 -103 8 -125 -1 -7 -2 -16 -2 -19 1
-3 3 -34 7 -68 9 -134 5 -164 7 -185 15 -14 5 -23 5 -23 -1 0 -5 -11 -5 -27 0
-26 8 -48 12 -148 27 -22 3 -42 8 -45 12 -3 3 -18 7 -35 9 -16 2 -35 8 -41 13
-6 5 -13 7 -16 4 -7 -7 -111 31 -206 76 -150 69 -264 165 -351 294 -42 62 -93
181 -105 245 -3 19 -9 46 -12 60 -16 72 -20 263 -9 366 9 76 16 128 20 134 2
3 6 23 9 45 4 22 13 67 21 100 21 82 23 90 25 90 1 0 3 10 6 22 5 31 40 131
82 243 20 52 37 97 38 100 1 7 24 56 78 173 25 53 44 99 43 101 -1 2 6 12 15
22 9 11 20 31 23 47 4 15 11 27 15 27 5 0 12 10 15 23 12 38 212 370 250 414
5 6 22 29 37 50 101 143 292 392 318 413 5 4 27 30 122 145 7 9 34 38 59 65
26 27 44 52 41 55 -3 3 -1 5 4 5 5 0 49 38 98 85 50 47 93 85 97 85 4 0 14 6
22 14 30 30 182 128 255 165 86 43 252 104 252 93 0 -4 4 -2 8 4 10 17 73 26
187 27 106 1 165 -11 255 -51 85 -38 220 -144 220 -172 0 -6 5 -8 10 -5 6 3
10 1 10 -5 0 -6 9 -21 21 -33 17 -18 103 -180 105 -197 0 -3 8 -32 18 -64 35
-119 38 -348 5 -433 -6 -15 -12 -35 -14 -44 -2 -9 -25 -59 -51 -113 -26 -53
-44 -99 -41 -102 8 -8 57 25 94 64 55 57 113 183 129 275 9 56 11 239 3 276
-4 20 -10 50 -14 68 -4 27 -41 139 -62 193 -4 8 -7 17 -7 20 -2 12 -91 155
-98 158 -5 2 -8 10 -8 18 0 9 -4 12 -10 9 -5 -3 -10 -2 -10 4 0 14 -110 120
-132 127 -10 3 -18 10 -18 15 0 5 -7 9 -15 9 -8 0 -15 5 -15 12 0 6 -3 8 -6 5
-4 -4 -19 2 -33 12 -14 10 -28 19 -31 19 -3 0 -18 6 -35 13 -16 7 -34 13 -40
14 -5 2 -30 8 -55 15 -25 7 -61 14 -80 17 -50 6 -180 10 -185 5z m2217 -3799
c10 -13 14 -38 13 -83 -3 -109 21 -100 -279 -100 -190 0 -265 3 -274 12 -16
16 -16 160 0 176 9 9 82 12 268 12 232 0 258 -2 272 -17z"/>
<path d="M5954 5494 c-17 -7 -42 -15 -55 -17 -13 -2 -41 -11 -63 -20 -21 -9
-41 -17 -44 -17 -12 0 -177 -84 -180 -92 -2 -4 -9 -8 -17 -8 -7 0 -18 -7 -25
-15 -7 -9 -28 -23 -47 -32 -18 -8 -32 -21 -30 -27 7 -20 77 -13 142 14 11 5
46 18 77 29 32 11 88 39 124 61 36 22 68 40 70 40 4 0 30 21 77 61 36 31 20
43 -29 23z"/>
<path d="M3266 5284 c-38 -13 -72 -27 -75 -32 -3 -5 -18 -15 -33 -23 -39 -20
-136 -115 -188 -185 -25 -32 -47 -61 -50 -64 -7 -7 -29 -43 -37 -60 -4 -8 -9
-17 -13 -20 -9 -7 -51 -100 -61 -135 -20 -65 -23 -93 -23 -180 0 -77 4 -98 27
-147 69 -142 214 -202 417 -174 14 2 25 4 25 5 0 2 11 4 25 7 25 4 61 18 90
35 8 5 29 15 45 22 47 22 104 63 175 126 l65 58 1 -41 c2 -141 57 -269 138
-321 86 -57 199 -33 283 58 l40 43 -2 -50 c-1 -28 3 -61 8 -74 10 -22 69 -46
75 -30 2 4 10 8 18 8 8 0 13 3 12 8 -1 4 6 34 17 67 23 75 23 74 30 108 3 15
13 49 22 75 8 26 16 52 17 57 2 11 25 83 33 105 3 8 7 20 8 26 6 28 99 214
107 214 4 0 8 6 8 13 0 15 57 83 107 128 59 52 272 83 363 53 40 -13 82 -12
87 2 4 12 -78 63 -108 66 -13 2 -26 6 -29 10 -23 29 -222 28 -325 -2 -44 -13
-82 -27 -85 -31 -9 -12 -53 -22 -46 -10 21 34 25 131 7 160 -12 18 -66 23 -80
7 -9 -11 -63 -204 -75 -271 -10 -53 -56 -220 -73 -265 -3 -8 -7 -22 -9 -30 -8
-41 -98 -201 -139 -248 -74 -83 -128 -101 -192 -62 -36 22 -53 48 -59 93 -2
18 -6 52 -10 77 -7 47 -7 80 0 117 3 13 0 25 -5 28 -5 4 -6 11 -3 17 4 5 8 31
10 57 6 67 12 114 18 131 3 8 8 31 11 50 3 19 7 44 9 55 2 11 9 51 15 89 7 38
14 72 15 75 2 3 7 24 11 46 10 58 10 59 18 71 4 7 0 17 -8 24 -13 11 -19 9
-36 -8 -11 -12 -18 -22 -15 -22 11 0 -147 -324 -173 -355 -9 -11 -29 -39 -44
-63 -104 -162 -272 -291 -425 -325 -78 -18 -182 -10 -182 14 0 5 -6 9 -14 9
-35 0 -62 132 -41 199 3 11 7 28 9 38 27 133 166 352 276 434 57 41 121 66
170 65 43 -2 119 -22 130 -35 3 -3 26 -23 52 -43 68 -55 96 -51 71 10 -17 41
-80 112 -100 112 -7 0 -13 4 -13 9 0 4 -21 17 -47 27 -68 27 -162 26 -247 -2z"/>
<path d="M5497 5164 c-2 -3 -19 -6 -36 -9 -69 -8 -177 -96 -249 -200 -15 -22
-29 -42 -32 -45 -21 -21 -175 -328 -185 -370 -1 -3 -11 -36 -23 -75 -28 -92
-33 -119 -34 -185 -1 -70 9 -107 39 -148 70 -94 210 -100 389 -17 41 18 78 35
82 36 4 1 30 17 59 36 29 18 55 33 58 33 3 0 11 4 18 10 7 5 59 48 117 94 58
46 128 104 155 130 28 26 83 77 123 114 108 98 231 222 242 242 13 24 13 40
-1 40 -9 0 -76 -45 -89 -61 -3 -3 -50 -36 -105 -74 -55 -38 -118 -83 -140
-100 -49 -39 -189 -136 -216 -150 -10 -5 -19 -13 -19 -17 0 -3 -26 -22 -57
-41 -95 -56 -208 -121 -213 -123 -3 0 -36 -15 -75 -33 -38 -18 -79 -35 -90
-37 -11 -2 -30 -6 -42 -8 -13 -3 -23 -1 -23 4 0 5 -6 7 -13 4 -7 -2 -21 4 -31
15 -19 21 -24 65 -13 116 6 32 14 67 21 100 19 84 176 415 197 415 5 0 9 5 9
10 0 6 25 37 56 70 72 75 103 88 156 63 33 -16 45 -66 28 -117 -15 -45 -85
-120 -140 -149 -54 -29 -61 -44 -18 -41 148 11 288 145 288 275 0 71 -62 151
-137 178 -28 10 -54 17 -56 15z"/>
<path d="M4189 3166 c-2 -2 -28 -7 -58 -10 -29 -4 -57 -9 -61 -11 -5 -3 -27
-7 -50 -10 -23 -3 -51 -10 -61 -16 -11 -5 -19 -8 -19 -5 0 3 -15 -1 -34 -9
-18 -8 -36 -11 -40 -8 -3 4 -6 1 -6 -6 0 -7 -5 -9 -11 -6 -5 4 -19 -1 -31 -12
-11 -10 -23 -17 -27 -16 -12 4 -51 -9 -51 -18 0 -5 -3 -8 -7 -7 -12 4 -153
-73 -153 -83 0 -5 -4 -8 -8 -7 -15 5 -153 -104 -236 -186 -45 -45 -111 -122
-146 -171 -62 -88 -162 -270 -168 -310 -2 -11 -8 -23 -14 -26 -5 -3 -8 -10 -7
-15 3 -12 -31 -126 -42 -140 -5 -6 -7 -13 -4 -15 2 -3 -3 -41 -11 -84 -17 -85
-30 -360 -17 -352 5 3 8 -11 7 -31 0 -21 4 -55 9 -77 5 -22 11 -49 13 -60 2
-11 11 -45 19 -75 8 -30 17 -62 19 -71 16 -63 90 -222 145 -309 111 -179 312
-373 482 -468 55 -31 104 -56 109 -57 3 -1 30 -13 60 -27 30 -14 73 -31 95
-38 85 -24 141 -38 175 -44 19 -3 53 -9 75 -13 50 -9 326 -10 380 -1 22 4 54
9 70 12 115 19 240 60 359 117 93 45 266 157 266 172 0 6 3 7 6 4 9 -9 202
189 244 251 19 28 38 51 43 52 4 0 7 6 7 14 0 8 7 21 15 30 14 13 104 187 105
201 0 3 9 24 19 47 19 46 59 190 66 235 2 16 7 46 11 68 10 50 11 304 2 365
-19 130 -59 282 -94 360 -59 131 -145 278 -171 293 -7 4 -13 14 -13 20 0 19
-145 172 -224 235 -39 32 -96 74 -126 94 -52 34 -185 107 -195 108 -3 0 -25 9
-51 20 -25 11 -52 20 -59 20 -8 0 -17 5 -20 11 -4 6 -13 8 -21 5 -7 -3 -16 -1
-19 4 -5 8 -73 26 -140 36 -16 3 -41 8 -55 11 -31 6 -345 15 -351 9z m254
-171 c80 -5 118 -12 225 -40 97 -25 272 -98 280 -117 2 -5 10 -8 18 -8 8 0 14
-4 14 -10 0 -5 5 -10 12 -10 18 0 158 -109 224 -175 88 -88 175 -209 230 -322
26 -54 51 -107 55 -118 4 -11 12 -33 18 -50 46 -125 72 -403 50 -535 -5 -30
-11 -71 -14 -90 -27 -172 -141 -411 -262 -552 -65 -75 -161 -164 -223 -208
-19 -13 -37 -27 -40 -31 -3 -4 -17 -13 -30 -18 -27 -12 -62 -33 -70 -42 -15
-17 -218 -94 -309 -116 -90 -22 -129 -26 -261 -27 -188 -1 -241 6 -390 50
-285 86 -539 284 -697 544 -65 107 -138 291 -147 370 -1 9 -5 20 -8 25 -10 16
-21 151 -21 245 0 163 26 312 74 427 10 22 15 44 12 47 -4 3 0 6 7 6 7 0 11 3
7 6 -6 7 43 102 101 194 133 212 377 404 617 485 44 15 87 30 95 33 8 3 20 6
25 7 6 1 12 3 15 5 3 1 19 4 35 5 17 2 41 6 55 10 14 3 68 9 120 12 52 3 97 7
99 9 2 2 8 1 13 -2 5 -3 37 -7 71 -9z"/>
<path d="M4179 2876 c-2 -2 -20 -7 -39 -10 -57 -9 -209 -55 -249 -76 -21 -10
-41 -16 -45 -13 -3 4 -6 1 -6 -5 0 -7 -9 -12 -20 -12 -11 0 -20 -4 -20 -9 0
-5 -10 -13 -22 -17 -13 -4 -25 -10 -28 -14 -3 -3 -31 -24 -63 -45 -57 -37
-237 -207 -237 -223 0 -4 -8 -17 -18 -28 -21 -23 -124 -194 -117 -194 3 0 -1
-10 -9 -22 -7 -13 -21 -48 -31 -78 -9 -30 -19 -62 -22 -70 -4 -8 -5 -19 -4
-24 1 -4 -2 -13 -7 -20 -4 -6 -10 -29 -11 -50 -2 -22 -6 -49 -11 -60 -12 -33
-9 -243 5 -321 7 -38 14 -70 15 -70 1 0 3 -11 6 -25 7 -42 46 -154 62 -177 8
-13 12 -23 8 -23 -3 0 8 -23 24 -50 17 -28 30 -55 30 -60 0 -4 3 -10 8 -12 4
-1 24 -28 45 -59 71 -106 218 -244 332 -312 27 -15 130 -66 180 -87 41 -18
145 -46 215 -59 47 -8 336 -7 380 2 19 3 46 9 59 12 70 14 239 77 281 105 14
10 30 19 35 21 29 12 115 72 115 82 0 5 3 8 6 5 3 -3 16 4 29 16 13 11 29 26
37 32 55 46 198 221 198 244 0 5 5 10 10 10 6 0 10 5 10 11 0 6 8 23 19 37 10
15 24 44 30 65 7 20 17 37 21 37 5 0 7 7 4 15 -4 8 -2 15 3 15 8 0 12 15 15
58 1 6 5 12 9 12 4 0 10 17 14 38 4 20 9 46 11 57 2 11 8 43 13 70 22 114 6
365 -30 472 -6 19 -12 40 -13 46 -5 19 -16 48 -44 107 -15 30 -27 61 -28 67
-1 7 -9 19 -17 28 -9 8 -19 24 -22 35 -3 11 -10 20 -14 20 -5 0 -14 14 -21 30
-7 17 -15 30 -19 30 -4 0 -14 12 -23 28 -16 26 -88 101 -157 161 -48 43 -158
115 -216 142 -27 13 -53 29 -57 34 -4 6 -8 6 -8 2 0 -4 -10 -2 -22 5 -13 7
-25 13 -28 13 -3 1 -25 7 -50 15 -25 7 -49 14 -55 16 -5 1 -30 7 -55 14 -41
11 -382 24 -391 16z m291 -170 c19 -2 35 -5 35 -6 0 -1 16 -3 35 -6 19 -2 58
-12 85 -21 28 -10 53 -16 58 -15 4 1 7 -3 7 -10 0 -6 3 -9 6 -5 12 11 170 -76
233 -128 100 -83 221 -217 221 -244 0 -5 3 -11 8 -13 10 -4 60 -99 76 -147 13
-34 13 -40 0 -45 -8 -3 -14 -9 -13 -13 1 -4 0 -11 -1 -15 -1 -5 -4 -12 -5 -18
-1 -5 -3 -11 -5 -12 -1 -2 -3 -10 -5 -18 -6 -22 -36 -104 -40 -109 -6 -6 -35
26 -35 39 0 6 -5 16 -10 23 -6 7 -26 37 -45 67 -47 73 -56 77 -100 39 -20 -17
-37 -30 -39 -28 -8 11 -72 126 -79 144 -5 11 -11 31 -13 45 -3 14 -17 50 -32
80 -14 30 -25 60 -24 66 2 11 -19 25 -43 29 -12 2 -55 -35 -55 -47 0 -16 -64
-79 -109 -107 -25 -15 -73 -56 -105 -89 -33 -34 -63 -59 -68 -56 -15 10 -28
52 -30 99 -1 47 -33 91 -54 77 -6 -4 -34 -49 -61 -100 -48 -90 -115 -182 -133
-182 -5 0 -15 7 -24 15 -8 8 -17 15 -21 15 -4 0 -13 7 -21 15 -21 21 -37 19
-50 -8 -40 -83 -80 -142 -132 -196 l-60 -61 -30 30 c-17 16 -28 30 -25 30 3 0
0 6 -6 14 -6 7 -18 37 -27 65 -12 43 -19 52 -35 49 -11 -2 -30 -21 -42 -43
-12 -22 -26 -43 -32 -47 -5 -4 -6 -8 -2 -8 5 0 -6 -19 -24 -42 -33 -45 -87
-98 -98 -98 -3 0 -17 17 -31 38 -28 41 -32 47 -60 81 -25 30 -25 55 0 160 53
221 195 424 392 559 26 18 51 32 57 32 6 0 11 4 11 9 0 8 120 64 137 63 4 0
13 3 18 7 9 7 61 23 67 20 2 0 16 4 31 10 15 6 53 14 85 17 31 3 58 7 59 8 4
3 159 -3 203 -8z m288 -498 c6 -24 14 -59 18 -79 3 -20 23 -62 44 -93 37 -54
58 -111 46 -123 -3 -3 2 -12 12 -19 20 -15 43 -5 88 38 l31 29 7 -26 c4 -14
38 -57 76 -94 39 -37 70 -73 70 -79 0 -6 9 -14 21 -17 26 -9 56 17 64 56 4 16
10 29 14 29 4 0 14 18 21 40 23 70 27 55 31 -110 2 -72 -7 -165 -17 -181 -2
-4 -14 -6 -27 -3 -62 14 -338 20 -387 8 -14 -3 -34 -6 -44 -5 -28 0 -180 -36
-220 -53 -19 -8 -37 -12 -40 -8 -3 3 -6 0 -6 -7 0 -6 -6 -11 -12 -9 -7 2 -29
-7 -48 -19 -73 -45 -285 -98 -345 -87 -11 2 -40 6 -65 9 -72 7 -91 13 -129 38
-167 108 -390 144 -514 82 -35 -17 -46 -9 -48 35 0 14 -2 34 -5 45 -8 36 -14
140 -7 125 9 -21 60 -96 79 -114 20 -21 46 -20 71 2 72 62 92 82 121 120 l34
42 40 -37 c22 -21 46 -50 53 -64 18 -34 59 -45 91 -24 13 8 24 22 24 30 0 8 5
15 10 15 6 0 10 7 10 15 0 8 5 15 10 15 6 0 10 5 10 10 0 6 9 21 21 33 11 12
39 50 62 85 23 34 46 62 53 62 6 0 23 -9 37 -21 29 -22 54 -16 80 21 8 11 32
39 53 62 21 23 46 55 55 71 l16 30 17 -51 c11 -31 27 -57 43 -68 26 -17 27
-16 54 17 67 84 140 153 219 208 47 33 87 60 90 60 3 1 11 -18 18 -41z m423
-721 c48 -4 116 -26 83 -27 -7 0 -17 -19 -23 -42 -6 -24 -19 -57 -30 -74 -16
-26 -24 -31 -48 -28 -46 7 -172 7 -258 0 -75 -6 -91 -8 -147 -21 -13 -3 -34
-8 -48 -10 -27 -4 -73 -19 -130 -42 -35 -14 -193 -20 -239 -9 -55 13 -128 37
-151 51 -22 13 -23 14 -5 15 90 5 139 13 200 32 38 12 72 22 75 23 3 0 39 17
80 37 41 20 93 41 115 48 22 7 44 15 49 18 5 3 21 7 35 8 14 2 40 6 56 8 17 3
64 8 105 12 41 3 76 7 77 8 3 2 144 -3 204 -7z m-1435 -50 c89 -27 266 -126
309 -173 17 -18 117 -79 127 -76 4 1 8 -2 8 -7 0 -5 15 -12 33 -16 17 -4 35
-9 40 -10 4 -1 12 -3 17 -4 26 -3 6 -18 -27 -20 -95 -7 -128 -2 -187 28 -123
60 -174 73 -281 74 -82 0 -109 -4 -149 -21 -27 -12 -54 -22 -62 -22 -19 0
-124 183 -124 217 0 46 183 65 296 30z m1382 -216 c8 -1 3 -14 -14 -38 -31
-42 -169 -183 -179 -183 -3 0 -18 -11 -33 -25 -15 -14 -30 -25 -35 -25 -4 0
-20 -9 -36 -21 -23 -17 -44 -20 -142 -22 -63 -2 -134 1 -159 5 -25 5 -56 10
-70 13 -14 2 -44 14 -67 25 -23 11 -47 20 -53 20 -5 0 -10 4 -10 8 0 4 -13 16
-30 25 -16 10 -30 23 -30 29 0 6 3 9 6 6 15 -15 250 61 266 86 4 6 8 8 8 4 0
-4 32 7 72 23 39 17 83 33 97 36 40 8 56 11 56 13 0 2 56 9 108 14 21 2 40 6
42 7 3 3 159 3 203 0z m-1217 -102 c73 -21 281 -138 319 -179 5 -5 66 -45 111
-73 14 -8 46 -21 70 -28 55 -16 57 -16 69 -18 14 -2 12 -17 -2 -19 -63 -7
-193 -7 -242 0 -101 13 -128 18 -137 24 -5 3 -17 7 -26 9 -113 22 -291 126
-402 232 -39 38 -35 50 21 63 47 10 166 4 219 -11z"/>
<path d="M3913 2496 c-75 -34 -121 -119 -109 -200 9 -54 33 -91 80 -124 32
-22 50 -27 101 -27 51 0 68 5 101 27 146 101 87 323 -89 335 -31 2 -65 -2 -84
-11z m147 -96 c33 -36 42 -80 22 -120 -40 -83 -154 -83 -194 -1 -20 41 -12 85
22 121 23 25 36 30 75 30 39 0 52 -5 75 -30z"/>
<path d="M6187 3092 c-15 -16 -17 -47 -17 -229 0 -191 2 -211 18 -226 16 -15
47 -17 224 -17 186 0 206 2 221 18 15 16 17 47 17 229 0 191 -2 211 -18 226
-16 15 -47 17 -224 17 -186 0 -206 -2 -221 -18z"/>
<path d="M5975 2531 c-45 -20 -70 -60 -70 -112 0 -42 5 -53 33 -81 29 -29 39
-33 87 -33 48 0 58 4 87 33 28 28 33 39 33 82 0 42 -5 54 -31 81 -34 33 -99
48 -139 30z"/>
</g>
</svg>
